<?xml version="1.0" encoding="utf-8"?>
<!-- Generator: Adobe Illustrator 26.0.2, SVG Export Plug-In . SVG Version: 6.00 Build 0)  -->
<svg version="1.1" id="Layer_1" xmlns="http://www.w3.org/2000/svg" xmlns:xlink="http://www.w3.org/1999/xlink" x="0px" y="0px"
	 viewBox="0 0 191 63.4" style="enable-background:new 0 0 191 63.4;" xml:space="preserve">
<style type="text/css">
	.st0{fill:#231F20;}
</style>
<g id="Layer_2_00000166645998424483961830000013652610000382794130_">
	<g id="Слой_1">
		<path class="st0" d="M59.2,23.4c2-0.4,4.1-0.1,5.9,1c0.5,0.3,1.1,0.2,1.4-0.3c0.1-0.2,0.1-0.3,0.2-0.5V10.4c0-1.7-1.3-3-3-3H21.3
			c-1.7,0-3,1.3-3,3v12.4c0,0.6-0.5,1-1,1c-0.1,0-0.3,0-0.4-0.1c-1.2-0.6-2.6-0.9-4-0.9c-4.8,0-8.7,4-8.7,8.8s4,8.7,8.8,8.7
			c1.3,0,2.7-0.3,3.9-0.9c0.5-0.2,1.1,0,1.3,0.5c0.1,0.1,0.1,0.3,0.1,0.4v12.4c0,1.7,1.3,3,3,3h42.3c1.7,0,3-1.3,3-3V39.4
			c0-0.6-0.5-1-1-1c-0.2,0-0.3,0.1-0.5,0.1c-3.9,2.4-9,1.1-11.3-2.8c-2.4-3.9-1.1-9,2.8-11.3C57.4,24,58.2,23.6,59.2,23.4z"/>
		<path class="st0" d="M78,28.9c-1-0.5-1.9-1.3-2.4-2.3c-0.6-1-0.9-2.2-0.9-3.4c0-1.2,0.3-2.3,0.9-3.4c0.6-1,1.4-1.8,2.4-2.3
			c2-1,4.4-1.1,6.5-0.3c0.9,0.4,1.6,0.9,2.2,1.6l-1.9,1.7c-0.8-1-1.9-1.5-3.2-1.5c-0.7,0-1.4,0.2-2.1,0.5c-0.6,0.3-1.1,0.8-1.4,1.4
			c-0.7,1.3-0.7,2.9,0,4.2c0.3,0.6,0.8,1.1,1.4,1.4c0.6,0.3,1.4,0.5,2.1,0.5c1.2,0,2.4-0.5,3.2-1.5l1.9,1.7
			c-0.6,0.7-1.4,1.3-2.2,1.7c-1,0.4-2,0.6-3,0.6C80.3,29.7,79.1,29.5,78,28.9z"/>
		<path class="st0" d="M90,29c-0.8-0.4-1.4-1-1.9-1.8c-0.9-1.6-0.9-3.6,0-5.1c0.5-0.7,1.1-1.4,1.9-1.8c1.7-0.9,3.8-0.9,5.5,0
			c0.8,0.4,1.4,1,1.9,1.8c0.9,1.6,0.9,3.6,0,5.1c-0.5,0.8-1.1,1.4-1.9,1.8C93.7,29.8,91.7,29.8,90,29z M94.5,26.6
			c0.9-1.1,0.9-2.8,0-3.9c-0.5-0.5-1.1-0.7-1.8-0.7c-0.7,0-1.3,0.2-1.8,0.7c-0.5,0.5-0.7,1.3-0.7,2c0,0.7,0.2,1.4,0.7,2
			c0.5,0.5,1.1,0.8,1.8,0.7C93.4,27.4,94.1,27.1,94.5,26.6L94.5,26.6z"/>
		<path class="st0" d="M115.2,20.8c0.8,0.9,1.2,2.1,1.1,3.2v5.5h-2.8v-5.1c0-0.6-0.1-1.2-0.5-1.7c-0.3-0.4-0.8-0.6-1.4-0.6
			c-0.6,0-1.2,0.2-1.6,0.6c-0.4,0.5-0.6,1.2-0.6,1.9v4.9h-2.8v-5.1c0-1.5-0.6-2.3-1.8-2.3c-0.6,0-1.1,0.2-1.5,0.6
			c-0.4,0.5-0.6,1.2-0.6,1.9v4.9h-2.8v-9.7h2.7v1.1c0.4-0.4,0.8-0.7,1.3-0.9c0.5-0.2,1.1-0.3,1.7-0.3c0.6,0,1.3,0.1,1.8,0.4
			c0.5,0.3,1,0.7,1.3,1.2c0.4-0.5,0.9-0.9,1.5-1.2c0.6-0.3,1.3-0.4,2-0.4C113.4,19.6,114.4,20,115.2,20.8z"/>
		<path class="st0" d="M127,20.3c0.7,0.4,1.3,1,1.7,1.8c0.8,1.6,0.8,3.6,0,5.2c-0.4,0.7-1,1.3-1.7,1.7c-0.7,0.4-1.6,0.6-2.4,0.6
			c-1.1,0.1-2.2-0.4-2.9-1.2V33h-2.8V19.8h2.7v1.1c0.8-0.9,1.9-1.3,3-1.3C125.4,19.7,126.2,19.9,127,20.3z M125.8,26.6
			c0.5-0.5,0.7-1.2,0.7-2c0-0.7-0.2-1.5-0.7-2c-1-1-2.6-1-3.5,0c-0.5,0.5-0.7,1.3-0.7,2c0,0.7,0.2,1.4,0.7,2
			C123.3,27.6,124.9,27.6,125.8,26.6z"/>
		<path class="st0" d="M131.2,16.1h2.8v13.4h-2.8L131.2,16.1z"/>
		<path class="st0" d="M146.1,25.5h-7.3c0.1,0.6,0.4,1.1,0.9,1.4c0.5,0.4,1.2,0.5,1.8,0.5c0.5,0,0.9-0.1,1.3-0.2
			c0.4-0.2,0.8-0.4,1.1-0.7l1.5,1.6c-1,1.1-2.5,1.7-4,1.6c-1,0-2-0.2-2.9-0.6c-0.8-0.4-1.5-1-1.9-1.8c-0.9-1.6-0.9-3.5,0-5.1
			c0.4-0.8,1.1-1.4,1.9-1.8c1.6-0.8,3.6-0.8,5.2,0c0.8,0.4,1.4,1,1.8,1.8c0.5,0.8,0.7,1.7,0.7,2.6C146.1,24.7,146.1,25,146.1,25.5z
			 M139.5,22.3c-0.4,0.4-0.7,0.9-0.8,1.5h4.8c-0.1-0.6-0.4-1.1-0.8-1.5C141.7,21.6,140.4,21.6,139.5,22.3L139.5,22.3z"/>
		<path class="st0" d="M154.2,29c-0.3,0.2-0.6,0.4-1,0.5c-0.4,0.1-0.8,0.2-1.3,0.1c-1,0.1-1.9-0.3-2.7-0.9c-0.7-0.7-1-1.6-0.9-2.6
			v-4h-1.5V20h1.5v-2.3h2.8V20h2.4v2.2h-2.4v3.9c0,0.3,0.1,0.7,0.3,1c0.2,0.2,0.6,0.3,0.9,0.3c0.4,0,0.8-0.1,1.1-0.4L154.2,29z"/>
		<path class="st0" d="M156,18c-0.6-0.6-0.6-1.6-0.1-2.2c0,0,0,0,0.1-0.1c0.3-0.3,0.8-0.5,1.3-0.4c0.5,0,0.9,0.1,1.3,0.4
			c0.3,0.3,0.5,0.7,0.5,1.1c0,0.4-0.2,0.9-0.5,1.2c-0.3,0.3-0.8,0.5-1.3,0.5C156.8,18.5,156.3,18.3,156,18z M155.9,19.8h2.8v9.7
			h-2.8V19.8z"/>
		<path class="st0" d="M163.1,29c-0.8-0.4-1.4-1-1.9-1.8c-1.4-2.3-0.7-5.3,1.6-6.7c0.1-0.1,0.2-0.1,0.3-0.2c1.7-0.9,3.8-0.9,5.5,0
			c2.4,1.3,3.3,4.4,2,6.8c0,0,0,0.1-0.1,0.1c-0.5,0.8-1.1,1.4-1.9,1.8C166.9,29.9,164.8,29.9,163.1,29z M167.6,26.6
			c0.5-0.5,0.7-1.2,0.7-2c0-0.7-0.2-1.5-0.7-2c-0.5-0.5-1.1-0.8-1.8-0.7c-0.7,0-1.3,0.3-1.8,0.7c-0.5,0.5-0.7,1.3-0.7,2
			c0,0.7,0.2,1.4,0.7,2c0.5,0.5,1.1,0.7,1.8,0.7C166.5,27.4,167.2,27.1,167.6,26.6L167.6,26.6z"/>
		<path class="st0" d="M181.8,20.8c0.8,0.9,1.2,2,1.1,3.2v5.6h-2.8v-5.1c0-0.6-0.1-1.2-0.5-1.7c-0.4-0.4-0.9-0.6-1.4-0.6
			c-0.6,0-1.3,0.2-1.7,0.7c-0.5,0.5-0.7,1.2-0.6,2v4.8H173v-9.7h2.7V21c0.4-0.4,0.9-0.7,1.4-1c0.6-0.2,1.2-0.3,1.8-0.3
			C180,19.7,181,20,181.8,20.8z"/>
		<path class="st0" d="M76.8,47.2c-0.8-0.2-1.4-0.6-2-1.2l0.5-1c0.5,0.5,1.1,0.9,1.8,1.1c0.7,0.3,1.5,0.4,2.3,0.4
			c0.9,0.1,1.8-0.2,2.5-0.6c0.5-0.4,0.8-1,0.8-1.6c0-0.4-0.1-0.9-0.5-1.2c-0.3-0.3-0.7-0.6-1.1-0.7c-0.6-0.2-1.2-0.4-1.8-0.5
			c-0.8-0.2-1.5-0.4-2.3-0.7c-0.6-0.2-1.1-0.6-1.4-1c-0.4-0.5-0.6-1.2-0.6-1.8c0-0.6,0.2-1.2,0.5-1.7c0.4-0.6,0.9-1,1.6-1.2
			c0.8-0.3,1.7-0.5,2.6-0.5c0.7,0,1.4,0.1,2.1,0.3c0.6,0.2,1.2,0.5,1.8,0.8L83.2,37c-1-0.6-2.2-1-3.5-1c-0.9-0.1-1.8,0.2-2.5,0.6
			c-0.5,0.4-0.8,1-0.8,1.7c0,0.5,0.1,0.9,0.5,1.2c0.3,0.3,0.7,0.6,1.2,0.7c0.5,0.2,1.1,0.3,1.9,0.5c0.8,0.2,1.5,0.4,2.2,0.7
			c0.6,0.2,1.1,0.6,1.4,1c0.4,0.5,0.6,1.2,0.6,1.8c0,0.6-0.2,1.2-0.5,1.7c-0.4,0.6-0.9,1-1.6,1.2c-0.8,0.3-1.7,0.5-2.6,0.5
			C78.6,47.7,77.7,47.5,76.8,47.2z"/>
		<path class="st0" d="M88.2,47c-0.7-0.4-1.3-1-1.7-1.7c-0.9-1.6-0.9-3.4,0-5c0.4-0.7,1-1.3,1.7-1.7c1.5-0.8,3.4-0.8,4.9,0
			c0.7,0.4,1.3,1,1.7,1.7c0.8,1.6,0.8,3.4,0,5c-0.4,0.7-1,1.3-1.7,1.7C91.6,47.8,89.8,47.8,88.2,47z M92.5,46c0.5-0.3,1-0.8,1.2-1.3
			c0.6-1.2,0.6-2.6,0-3.8c-0.3-0.5-0.7-1-1.2-1.3c-1.1-0.6-2.5-0.6-3.6,0c-0.5,0.3-1,0.8-1.3,1.3c-0.6,1.2-0.6,2.6,0,3.8
			c0.3,0.5,0.7,1,1.3,1.3C90,46.6,91.4,46.6,92.5,46z"/>
		<path class="st0" d="M98.1,34.2h1.3v13.4h-1.3V34.2z"/>
		<path class="st0" d="M111.5,38v9.5h-1.2v-1.7c-0.3,0.6-0.8,1-1.4,1.3c-0.6,0.3-1.3,0.5-2,0.5c-2,0.2-3.8-1.3-4-3.3
			c0-0.3,0-0.5,0-0.8V38h1.3v5.4c-0.1,0.8,0.2,1.6,0.7,2.3c0.6,0.5,1.3,0.8,2.1,0.8c0.9,0,1.7-0.3,2.3-0.9c0.6-0.7,0.9-1.6,0.9-2.5
			v-5H111.5z"/>
		<path class="st0" d="M120.1,46.9c-0.3,0.2-0.6,0.4-0.9,0.5c-0.4,0.1-0.7,0.2-1.1,0.2c-0.7,0-1.5-0.2-2-0.7c-0.5-0.5-0.8-1.3-0.7-2
			v-5.8h-1.7V38h1.7v-2h1.3v2h2.9v1.1h-2.9v5.7c0,0.5,0.1,0.9,0.4,1.3c0.3,0.3,0.8,0.5,1.2,0.4c0.3,0,0.5,0,0.8-0.1
			c0.2-0.1,0.4-0.2,0.6-0.4L120.1,46.9z"/>
		<path class="st0" d="M122.4,35.7c-0.2-0.2-0.3-0.4-0.3-0.7c0-0.2,0.1-0.5,0.3-0.6c0.2-0.2,0.4-0.3,0.7-0.3c0.2,0,0.5,0.1,0.7,0.3
			c0.2,0.1,0.3,0.4,0.3,0.6c0,0.5-0.4,0.9-0.9,0.9C122.8,35.9,122.6,35.8,122.4,35.7L122.4,35.7z M122.4,38h1.3v9.5h-1.3V38z"/>
		<path class="st0" d="M128.6,47c-0.7-0.4-1.3-1-1.7-1.7c-0.9-1.6-0.9-3.4,0-5c0.4-0.7,1-1.3,1.7-1.7c1.5-0.8,3.4-0.8,4.9,0
			c0.7,0.4,1.3,1,1.7,1.7c0.8,1.6,0.8,3.4,0,5c-0.4,0.7-1,1.3-1.7,1.7C132,47.8,130.2,47.8,128.6,47L128.6,47z M132.9,46
			c0.5-0.3,1-0.8,1.2-1.3c0.6-1.2,0.6-2.6,0-3.8c-0.3-0.5-0.7-1-1.2-1.3c-0.6-0.3-1.2-0.5-1.8-0.5c-0.6,0-1.3,0.1-1.8,0.5
			c-0.5,0.3-1,0.8-1.3,1.3c-0.6,1.2-0.6,2.6,0,3.8c0.3,0.5,0.7,1,1.3,1.3c0.6,0.3,1.2,0.5,1.8,0.5C131.7,46.5,132.3,46.3,132.9,46z"
			/>
		<path class="st0" d="M146.2,39c0.7,0.8,1.1,1.9,1.1,3v5.5h-1.3v-5.3c0.1-0.8-0.2-1.6-0.7-2.2c-0.6-0.5-1.3-0.8-2.1-0.8
			c-0.9,0-1.8,0.3-2.4,0.9c-0.6,0.7-0.9,1.6-0.9,2.5v5h-1.3V38h1.2v1.8c0.3-0.6,0.8-1,1.4-1.3c0.7-0.3,1.4-0.5,2.1-0.5
			C144.4,37.9,145.4,38.3,146.2,39z"/>
		<path class="st0" d="M151,47.3c-0.6-0.2-1.2-0.5-1.6-0.8l0.6-1c0.4,0.3,1,0.6,1.5,0.8c0.6,0.2,1.2,0.3,1.9,0.3
			c0.7,0,1.3-0.1,1.9-0.4c0.4-0.2,0.6-0.7,0.6-1.2c0-0.3-0.1-0.6-0.3-0.8c-0.2-0.2-0.5-0.4-0.9-0.5c-0.5-0.1-0.9-0.2-1.4-0.3
			c-0.6-0.1-1.2-0.3-1.9-0.4c-0.5-0.1-0.9-0.4-1.2-0.8c-0.3-0.4-0.5-0.9-0.5-1.5c0-0.8,0.4-1.5,1-2c0.8-0.5,1.8-0.8,2.8-0.8
			c0.6,0,1.2,0.1,1.8,0.2c0.5,0.1,1,0.3,1.5,0.6l-0.6,1c-0.8-0.6-1.8-0.8-2.8-0.8c-0.6,0-1.3,0.1-1.8,0.4c-0.4,0.2-0.6,0.7-0.6,1.1
			c0,0.3,0.1,0.6,0.4,0.9c0.3,0.2,0.6,0.4,0.9,0.5c0.5,0.1,1,0.2,1.4,0.3c0.6,0.1,1.2,0.3,1.8,0.4c0.4,0.1,0.8,0.4,1.2,0.7
			c0.3,0.4,0.5,0.9,0.5,1.4c0,0.8-0.3,1.6-1,2c-0.9,0.5-1.9,0.8-2.9,0.7C152.5,47.6,151.7,47.5,151,47.3z"/>
	</g>
</g>
</svg>
